<?xml version="1.0" encoding="UTF-8"?>
<svg width="14px" height="14px" viewBox="0 0 14 14" version="1.1" xmlns="http://www.w3.org/2000/svg" xmlns:xlink="http://www.w3.org/1999/xlink">
    <!-- Generator: Sketch 58 (84663) - https://sketch.com -->
    <title>RX</title>
    <desc>Created with Sketch.</desc>
    <g id="RX" stroke="none" stroke-width="1" fill="none" fill-rule="evenodd">
        <circle id="Oval" fill="#685037" cx="7" cy="7" r="7"></circle>
        <path d="M10.2938889,10.8733333 C10.2938889,10.8997778 10.2744444,10.9192222 10.248,10.9184444 C10.1072222,10.9137778 9.96644444,10.9052222 9.82566667,10.906 C9.63977778,10.906 9.45466667,10.913 9.26955556,10.9184444 C9.23844444,10.92 9.21977778,10.9122222 9.20266667,10.885 C9.08055556,10.6874444 8.95844444,10.4906667 8.83322222,10.2946667 C8.75466667,10.171 8.66988889,10.0512222 8.58822222,9.92911111 C8.30744444,9.51455556 8.02588889,9.09922222 7.74511111,8.68466667 C7.74044444,8.67766667 7.73577778,8.67066667 7.72955556,8.66211111 C7.72411111,8.66911111 7.71944444,8.67377778 7.71555556,8.67922222 C7.18666667,9.38777778 6.71144444,10.1313333 6.26033333,10.8912222 C6.24633333,10.9145556 6.23233333,10.9192222 6.20744444,10.9184444 C6.07522222,10.913 5.943,10.9067778 5.81077778,10.906 C5.72288889,10.9052222 5.635,10.913 5.54788889,10.9176667 C5.52533333,10.9184444 5.50277778,10.9207778 5.48877778,10.8974444 C5.48411111,10.8888889 5.47788889,10.8787778 5.47788889,10.8694444 C5.47633333,10.8243333 5.47711111,10.7784444 5.47711111,10.7333333 C5.47711111,10.7053333 5.49811111,10.6858889 5.52533333,10.6835556 C5.60388889,10.6773333 5.68166667,10.6718889 5.75944444,10.6625556 C5.81933333,10.6547778 5.86833333,10.6221111 5.91188889,10.5816667 C5.99822222,10.5 6.07055556,10.4051111 6.13977778,10.3094444 C6.58466667,9.68955556 7.02955556,9.06888889 7.47444444,8.44822222 C7.49155556,8.42411111 7.50866667,8.39922222 7.52655556,8.37511111 C7.53588889,8.36344444 7.53588889,8.35488889 7.52888889,8.34088889 C7.45422222,8.19933333 7.35,8.078 7.25511111,7.95044444 C7.03188889,7.64788889 6.81022222,7.34455556 6.58855556,7.04044444 C6.28988889,6.62977778 5.97955556,6.22844444 5.65133333,5.84111111 C5.57277778,5.747 5.49266667,5.65522222 5.41255556,5.56266667 C5.40244444,5.551 5.39933333,5.54166667 5.40477778,5.52766667 C5.41411111,5.50355556 5.42188889,5.47788889 5.42888889,5.453 C5.432,5.43977778 5.439,5.43511111 5.453,5.43588889 C5.56344444,5.43977778 5.67466667,5.446 5.78511111,5.44366667 C6.00288889,5.43977778 6.21677778,5.40866667 6.41822222,5.32077778 C6.657,5.21811111 6.84288889,5.05788889 6.95566667,4.81988889 C7.01088889,4.704 7.03966667,4.58111111 7.05133333,4.45433333 C7.06377778,4.32366667 7.05988889,4.19455556 7.03266667,4.06622222 C6.979,3.81422222 6.83277778,3.63222222 6.608,3.51088889 C6.468,3.43544444 6.31788889,3.39344444 6.16155556,3.37166667 C6.00833333,3.34988889 5.85355556,3.34911111 5.69877778,3.35922222 C5.52455556,3.37088889 5.35344444,3.40122222 5.18544444,3.451 C5.17066667,3.45566667 5.16211111,3.46344444 5.15977778,3.479 C5.15277778,3.53111111 5.14188889,3.584 5.13877778,3.63611111 C5.11155556,4.04677778 5.11466667,4.45744444 5.11466667,4.86888889 C5.11466667,5.58211111 5.11466667,6.29533333 5.11622222,7.00933333 C5.11622222,7.18277778 5.12011111,7.357 5.12555556,7.53044444 C5.12788889,7.62377778 5.13333333,7.71633333 5.15977778,7.80655556 C5.17455556,7.85788889 5.20566667,7.89133333 5.25388889,7.91233333 C5.32155556,7.94266667 5.39233333,7.95277778 5.46466667,7.95744444 C5.57277778,7.966 5.68088889,7.97066667 5.789,7.97688889 C5.81466667,7.97844444 5.831,7.99633333 5.831,8.02122222 C5.831,8.06866667 5.83177778,8.11688889 5.831,8.16433333 C5.831,8.19 5.81233333,8.20866667 5.78666667,8.20788889 C5.57277778,8.20088889 5.35888889,8.19388889 5.145,8.18688889 C4.92255556,8.17911111 4.69933333,8.17833333 4.47611111,8.18688889 C4.35633333,8.19155556 4.23577778,8.19466667 4.116,8.19777778 C3.99622222,8.20166667 3.87566667,8.20477778 3.75588889,8.20788889 C3.72477778,8.20866667 3.70688889,8.19077778 3.70688889,8.15966667 C3.70611111,8.113 3.70611111,8.06711111 3.70688889,8.02122222 C3.70688889,7.99633333 3.72322222,7.97844444 3.74888889,7.97688889 C3.836,7.97222222 3.92388889,7.96911111 4.011,7.96211111 C4.09733333,7.95588889 4.18288889,7.94811111 4.26533333,7.92166667 C4.31977778,7.90377778 4.35555556,7.86955556 4.37344444,7.81511111 C4.39522222,7.749 4.40377778,7.68133333 4.40844444,7.61366667 C4.43022222,7.26444444 4.42166667,6.91522222 4.42322222,6.56522222 C4.42555556,6.07988889 4.42555556,5.59455556 4.424,5.10844444 C4.42244444,4.67755556 4.41777778,4.24666667 4.41233333,3.81577778 C4.41077778,3.71311111 4.40688889,3.60966667 4.38588889,3.50855556 C4.37111111,3.43466667 4.33066667,3.38877778 4.25911111,3.36544444 C4.19066667,3.34366667 4.12066667,3.33588889 4.05066667,3.33122222 C3.94877778,3.32344444 3.84766667,3.31877778 3.74655556,3.31255556 C3.72477778,3.311 3.70688889,3.29155556 3.70688889,3.27055556 C3.70611111,3.22233333 3.70611111,3.17411111 3.70688889,3.12511111 C3.70688889,3.101 3.72633333,3.08077778 3.75122222,3.08155556 C3.87566667,3.087 4.00011111,3.09322222 4.12455556,3.09633333 C4.389,3.10177778 4.65266667,3.10955556 4.91633333,3.108 C5.21111111,3.10566667 5.50588889,3.09322222 5.80066667,3.087 C6.006,3.08311111 6.21133333,3.07844444 6.41666667,3.08311111 C6.64922222,3.08777778 6.87944444,3.11733333 7.10111111,3.192 C7.46822222,3.31488889 7.68211111,3.57933333 7.76844444,3.94566667 C7.85244444,4.29955556 7.76377778,4.62388889 7.56,4.91788889 C7.40288889,5.145 7.189,5.30522222 6.93855556,5.418 C6.74877778,5.50277778 6.54888889,5.55722222 6.34511111,5.59844444 C6.33655556,5.6 6.32722222,5.60233333 6.31322222,5.60544444 C6.86855556,6.342 7.42077778,7.07544444 7.97533333,7.812 C7.98077778,7.80422222 7.987,7.79644444 7.99244444,7.78866667 C8.44122222,7.13066667 8.89,6.47188889 9.33877778,5.81233333 C9.34966667,5.796 9.36055556,5.79133333 9.37922222,5.79211111 C9.51144444,5.796 9.64444444,5.79988889 9.77666667,5.80066667 C9.86377778,5.80144444 9.95166667,5.79522222 10.0395556,5.79211111 C10.066,5.79133333 10.0885556,5.81388889 10.0885556,5.84033333 C10.0893333,5.88233333 10.0885556,5.92511111 10.0885556,5.96711111 C10.0885556,5.99355556 10.0714444,6.01377778 10.045,6.01611111 C9.989,6.02155556 9.933,6.02777778 9.877,6.03088889 C9.77044444,6.03633333 9.68877778,6.09 9.61566667,6.16155556 C9.52155556,6.25333333 9.43988889,6.35522222 9.36133333,6.46022222 C9.04555556,6.88333333 8.73133333,7.308 8.41633333,7.73188889 C8.33777778,7.83844444 8.25766667,7.94344444 8.17755556,8.04922222 C8.15266667,8.08266667 8.15266667,8.09666667 8.17677778,8.13244444 C8.267,8.26155556 8.35644444,8.39144444 8.44588889,8.52055556 C8.80133333,9.03311111 9.15677778,9.54488889 9.51144444,10.0582222 C9.58922222,10.1717778 9.65922222,10.29 9.737,10.4035556 C9.78288889,10.4696667 9.83655556,10.5303333 9.88866667,10.5925556 C9.93377778,10.6462222 9.99444444,10.6687778 10.0628889,10.6734444 C10.1235556,10.6773333 10.1842222,10.6804444 10.2448889,10.6835556 C10.2736667,10.6851111 10.2938889,10.7045556 10.2938889,10.7325556 L10.2938889,10.8733333 M0,7 C0,10.8655556 3.13444444,14 7,14 C10.8663333,14 14,10.8655556 14,7 C14,3.13366667 10.8663333,0 7,0 C3.13444444,0 0,3.13366667 0,7 Z" id="Fill-1" fill="#FFE3C2"></path>
    </g>
</svg>